<?xml version="1.0" encoding="UTF-8"?>
<!DOCTYPE svg PUBLIC "-//W3C//DTD SVG 1.1//EN" "http://www.w3.org/Graphics/SVG/1.1/DTD/svg11.dtd">
<!-- Creator: CorelDRAW X8 -->
<svg xmlns="http://www.w3.org/2000/svg" xml:space="preserve" width="272px" height="17px" version="1.1" shape-rendering="geometricPrecision" text-rendering="geometricPrecision" image-rendering="optimizeQuality" fill-rule="evenodd" clip-rule="evenodd"
viewBox="0 0 272 17"
 xmlns:xlink="http://www.w3.org/1999/xlink">
 <g id="Capa_x0020_1">
  <metadata id="CorelCorpID_0Corel-Layer"/>
  <path fill="#0A8C63" fill-rule="nonzero" d="M0 1l0 1 4 0 0 11 2 0 0 -11 4 0 0 -1 -10 0zm17 3l0 5c0,2 -1,3 -3,3 -1,0 -2,-1 -2,-3l0 -5 -2 0 0 6c0,2 2,3 4,3 2,0 3,0 3,-2l0 2 2 0 0 -9 -2 0zm23 0c-2,0 -3,1 -4,2 0,-1 -2,-2 -3,-2 -2,0 -3,1 -4,2l0 -2 -1 0 0 9 1 0 0 -4c0,-2 1,-4 3,-4 2,0 3,1 3,3l0 5 1 0 0 -4c0,-2 1,-4 3,-4 2,0 3,1 3,3l0 5 1 0 0 -5c0,-3 -1,-4 -3,-4zm10 0c-3,0 -5,2 -5,5 0,3 2,4 5,4 2,0 3,0 4,-1l-1 -1c-1,1 -2,1 -3,1 -2,0 -3,-1 -3,-3l8 0c0,-3 -2,-5 -5,-5zm-3 4c0,-2 1,-3 3,-3 2,0 3,1 3,3l-6 0zm14 4c0,0 -1,0 -1,0 -1,0 -1,0 -1,-1l0 -6 3 0 0 -1 -3 0 0 -2 -2 0 0 2 -1 0 0 1 1 0 0 6c0,2 1,2 3,2 0,0 1,0 2,0l-1 -1zm10 1l0 -6c0,-2 -1,-3 -4,-3 -1,0 -2,0 -3,1l0 1c1,-1 2,-1 3,-1 2,0 3,1 3,2l0 1 -3 0c-3,0 -4,1 -4,3 0,1 1,2 3,2 2,0 3,0 4,-1l0 1 1 0zm-4 -1c-2,0 -3,0 -3,-1 0,-1 1,-2 3,-2l3 0 0 1c-1,2 -2,2 -3,2zm7 0c0,0 0,0 0,1 0,0 0,0 0,0l-1 2 1 0 1 -2c0,0 0,0 0,0 0,-1 0,-1 -1,-1zm11 -6l0 -2 -2 0 0 9 2 0 0 -5c0,-2 1,-3 3,-3l0 -1c-2,0 -3,1 -3,2zm9 -2c-3,0 -5,2 -5,5 0,3 2,4 5,4 1,0 3,0 3,-1l0 -1c-1,1 -2,1 -3,1 -2,0 -3,-1 -4,-3l8 0c0,-3 -1,-5 -4,-5zm-4 4c0,-2 2,-3 4,-3 1,0 3,1 3,3l-7 0zm15 -2l1 -1c-1,-1 -2,-1 -3,-1 -2,0 -3,1 -3,2 0,4 5,3 5,5 0,1 -1,1 -2,1 -1,0 -3,0 -3,-1l-1 1c1,1 2,1 4,1 2,0 3,0 3,-2 0,-4 -5,-3 -5,-5 0,-1 1,-1 2,-1 1,0 2,0 2,1zm9 -2c-2,0 -3,1 -4,2l0 -2 -1 0 0 13 1 0 0 -6c1,2 2,2 4,2 2,0 4,-1 4,-4 0,-3 -2,-5 -4,-5zm-1 8c-2,0 -3,-1 -3,-3 0,-2 1,-4 3,-4 2,0 4,2 4,4 0,2 -2,3 -4,3zm15 1l0 -6c0,-2 -1,-3 -4,-3 -1,0 -2,0 -4,1l1 1c1,-1 2,-1 3,-1 2,0 2,1 2,2l0 1 -3 0c-2,0 -3,1 -3,3 0,1 1,2 3,2 2,0 3,0 4,-1l0 1 1 0zm-5 -1c-1,0 -2,0 -2,-1 0,-1 1,-2 3,-2l2 0 0 1c0,2 -1,2 -3,2zm8 -12l0 13 1 0 0 -13 -1 0zm12 0l0 6c0,-1 -2,-2 -3,-2 -3,0 -5,2 -5,5 0,2 2,4 5,4 1,0 3,0 3,-2l0 2 2 0 0 -13 -2 0zm-3 12c-2,0 -4,-1 -4,-3 0,-2 2,-4 4,-4 2,0 3,2 3,4 0,2 -1,3 -3,3zm15 1l0 -6c0,-2 -1,-3 -3,-3 -2,0 -3,0 -4,1l0 1c1,-1 2,-1 3,-1 2,0 3,1 3,2l0 1 -3 0c-2,0 -4,1 -4,3 0,1 2,2 4,2 1,0 2,0 3,-1l0 1 1 0zm-4 -1c-1,0 -2,0 -2,-1 0,-1 0,-2 2,-2l3 0 0 1c0,2 -2,2 -3,2zm15 -12l0 6c-1,-1 -2,-2 -4,-2 -3,0 -4,2 -4,5 0,2 1,4 4,4 2,0 3,0 4,-2l0 2 1 0 0 -13 -1 0zm-4 12c-2,0 -3,-1 -3,-3 0,-2 1,-4 3,-4 2,0 4,2 4,4 0,2 -2,3 -4,3zm16 1l0 -6c0,-2 -1,-3 -4,-3 -1,0 -2,0 -4,1l1 1c1,-1 2,-1 3,-1 2,0 3,1 3,2l0 1 -4 0c-2,0 -3,1 -3,3 0,1 1,2 3,2 2,0 3,0 4,-1l0 1 1 0zm-5 -1c-1,0 -2,0 -2,-1 0,-1 1,-2 3,-2l3 0 0 1c-1,2 -2,2 -4,2zm19 -8c-2,0 -3,1 -4,2l0 -2 -2 0 0 13 2 0 0 -6c1,2 2,2 4,2 2,0 4,-1 4,-4 0,-3 -2,-5 -4,-5zm-1 8c-2,0 -3,-1 -3,-3 0,-2 1,-4 3,-4 2,0 4,2 4,4 0,2 -2,3 -4,3zm11 -8c-2,0 -4,2 -4,5 0,2 2,4 4,4 3,0 5,-2 5,-4 0,-3 -2,-5 -5,-5zm0 1c2,0 4,2 4,4 0,2 -2,3 -4,3 -2,0 -3,-1 -3,-3 0,-2 1,-4 3,-4zm9 1l0 -2 -1 0 0 9 1 0 0 -5c0,-2 1,-3 3,-3l0 -1c-1,0 -2,1 -3,2zm15 6c0,0 -1,0 -1,0 -1,0 -2,0 -2,-1l0 -6 3 0 0 -1 -3 0 0 -2 -1 0 0 2 -1 0 0 1 1 0 0 6c0,2 1,2 2,2 1,0 2,0 3,0l-1 -1zm6 -8c-2,0 -4,2 -4,5 0,2 2,4 4,4 3,0 5,-2 5,-4 0,-3 -2,-5 -5,-5zm0 1c2,0 4,2 4,4 0,2 -2,3 -4,3 -2,0 -3,-1 -3,-3 0,-2 1,-4 3,-4zm15 -5l0 6c-1,-1 -2,-2 -4,-2 -2,0 -4,2 -4,5 0,2 2,4 4,4 2,0 3,0 4,-2l0 2 1 0 0 -13 -1 0zm-4 12c-2,0 -3,-1 -3,-3 0,-2 1,-4 3,-4 2,0 4,2 4,4 0,2 -2,3 -4,3zm13 -8c-3,0 -5,2 -5,5 0,2 2,4 5,4 2,0 4,-2 4,-4 0,-3 -2,-5 -4,-5zm0 1c2,0 3,2 3,4 0,2 -1,3 -3,3 -2,0 -4,-1 -4,-3 0,-2 2,-4 4,-4zm12 1l0 -1c0,-1 -2,-1 -3,-1 -1,0 -3,1 -3,2 0,4 5,3 5,5 0,1 -1,1 -2,1 -1,0 -2,0 -3,-1l0 1c1,1 2,1 3,1 2,0 4,0 4,-2 0,-4 -6,-3 -6,-5 0,-1 1,-1 2,-1 1,0 2,0 3,1zm3 6c0,0 -1,0 -1,1 0,0 1,1 1,1 1,0 1,-1 1,-1 0,-1 0,-1 -1,-1z"/>
 </g>
</svg>
