<?xml version="1.0" encoding="UTF-8"?>
<!DOCTYPE svg PUBLIC "-//W3C//DTD SVG 1.1//EN" "http://www.w3.org/Graphics/SVG/1.1/DTD/svg11.dtd">
<!-- Creator: CorelDRAW X8 -->
<svg xmlns="http://www.w3.org/2000/svg" xml:space="preserve" width="163px" height="163px" version="1.1" shape-rendering="geometricPrecision" text-rendering="geometricPrecision" image-rendering="optimizeQuality" fill-rule="evenodd" clip-rule="evenodd"
viewBox="0 0 163 163"
 xmlns:xlink="http://www.w3.org/1999/xlink">
 <g id="Capa_x0020_1">
  <metadata id="CorelCorpID_0Corel-Layer"/>
  <g id="_2995598323024">
   <path fill="#03214E" d="M24 116c-1,-2 -1,-2 -3,-3 -4,-1 -5,-3 -8,-5 -1,5 5,17 9,20 0,3 0,3 0,6 3,8 12,6 12,6 2,2 3,3 5,4 16,12 34,0 33,-15 -2,0 -3,0 -5,1 -3,1 -3,1 -4,3 -3,8 -11,8 -17,5 -1,0 -3,-1 -4,-2 -2,-2 -1,-1 -1,-4 0,-6 -4,-10 -10,-10 -3,0 -3,0 -4,-2 -1,-1 -2,-2 -3,-4z"/>
   <path fill="#03214E" d="M34 72c-1,-13 -7,-6 -10,-14 -3,-7 1,-13 4,-17 5,0 7,0 10,-3 3,-3 3,-5 3,-10 4,-2 2,-2 6,-4 1,0 2,0 2,-2 3,-7 4,-6 5,-9 -7,0 -13,4 -18,8 -1,1 -1,1 -2,1 -3,0 -4,0 -6,1 -2,1 -4,2 -5,4 -3,5 1,6 -1,8 -6,7 -10,15 -7,25 3,7 10,13 19,12z"/>
   <path fill="#03214E" d="M91 33c2,1 8,0 9,-2 1,-4 1,-5 5,-7 7,-4 15,3 17,4 0,5 -1,6 3,10 3,3 4,2 9,3 1,0 4,5 5,6 1,3 1,1 7,4 1,1 3,3 4,3 0,-6 -4,-13 -8,-18 0,-1 -1,-1 -1,-2 0,-3 1,-3 -1,-6 -2,-4 -5,-6 -9,-6 -4,1 -1,1 -5,-2 -18,-14 -37,-1 -35,13z"/>
   <path fill="#0A8C63" d="M108 122c-2,0 -3,1 -3,3 -5,7 1,7 -3,13 -2,4 -7,8 -13,9 -4,-5 -11,-5 -16,1 -1,0 -2,-1 -4,-1 -2,-1 -2,0 -4,1 -4,3 -3,2 -7,3 2,3 15,5 15,6 2,1 2,2 4,3 3,2 7,2 10,0 2,-1 2,-2 3,-4 1,-1 4,-1 5,-2 11,-3 18,-11 17,-23 -1,-5 -2,-6 -4,-9z"/>
   <path fill="#0A8C63" d="M55 41c2,-1 5,-4 5,-6 1,-3 -4,-9 6,-16 2,-1 5,-3 8,-3 2,2 4,4 8,4 4,0 7,-3 8,-5 1,0 2,1 4,1 3,1 3,-2 11,-4 -1,-1 0,-1 -1,-1 -2,-1 -6,-3 -8,-4 -2,0 -5,0 -6,-1 -1,0 0,-1 -3,-3 -5,-3 -10,-2 -13,2 0,0 -1,1 -1,2 -1,1 -4,1 -5,1 -10,4 -19,12 -17,24 0,3 2,7 4,9z"/>
   <path fill="#03214E" d="M122 135l1 0c0,2 3,4 4,4 1,1 1,1 1,2 1,-1 4,0 6,0 9,-2 7,-12 7,-12 2,-4 4,-6 6,-10 2,-5 2,-10 1,-14 -2,-8 -9,-15 -19,-14 0,2 1,6 2,8 1,1 4,1 6,3 5,5 3,14 -2,19 -2,3 -2,0 -7,2 -8,3 -5,11 -6,12z"/>
   <path fill="#03214E" d="M95 48c5,3 7,3 11,8 1,1 3,2 4,4 4,5 11,11 17,12 5,1 12,0 15,-4 0,-1 -1,-1 -1,-2 -3,-2 -3,-4 -8,-3 -5,1 -9,-1 -11,-4 -2,-1 -3,-2 -4,-4 -2,-3 -7,-6 -10,-9 -1,-1 -1,-1 -2,-2 -1,0 -2,2 -5,3 -2,0 -5,0 -6,1z"/>
   <path fill="#03214E" d="M21 94c0,2 2,4 3,5 3,1 3,2 6,1 8,-2 14,7 19,11 0,1 0,1 1,1 2,3 4,5 7,7 3,-1 3,-3 11,-4 -1,-1 -4,-2 -6,-4 -4,-3 -14,-13 -14,-13 -6,-5 -12,-9 -21,-6 -3,0 -4,2 -6,2z"/>
   <path fill="#03214E" d="M44 57c1,1 2,3 2,5 1,1 2,5 2,6 2,-4 2,-5 8,-11 1,-1 1,-1 2,-2 4,-4 9,-8 11,-12 4,-8 4,-15 -1,-22 -1,0 -3,2 -4,3 -1,2 -2,3 -1,6 1,7 -3,11 -8,15 -2,2 -10,10 -11,12z"/>
   <path fill="#03214E" d="M95 142c2,-1 4,-3 5,-5 2,-3 -1,-5 0,-8 0,-6 8,-11 12,-16l5 -4c4,-5 0,-3 -2,-14 -1,1 -2,6 -8,11 -1,1 -1,1 -2,2 -4,3 -9,8 -11,12 -4,7 -4,14 0,21l1 1c0,0 0,0 0,0z"/>
   <path fill="#0A8C63" d="M47 94c0,-5 -2,-5 -2,-15 1,-9 0,-18 -7,-25 -2,-2 -7,-5 -12,-4 0,2 0,6 1,7 0,1 1,2 2,2 2,2 7,2 7,13 0,3 0,13 1,16 0,1 2,1 5,3 2,0 5,2 5,3z"/>
   <path fill="#0A8C63" d="M89 126c0,-1 0,-2 0,-3 1,-1 1,-2 2,-3 0,-1 2,-3 2,-4 -6,1 -4,2 -14,2 -5,0 -10,0 -15,1 -8,2 -14,8 -14,18 4,1 8,0 9,-3 2,-4 3,-5 6,-6 7,-3 17,0 24,-2z"/>
   <path fill="#0A8C63" d="M116 69c3,8 1,21 3,30 3,11 15,15 18,13 1,-3 0,-8 -3,-9 -2,0 -3,-1 -4,-2 -6,-4 -2,-23 -4,-26 -1,-1 -4,-2 -6,-3 -1,-1 -3,-2 -4,-3z"/>
   <path fill="#0A8C63" d="M74 37c0,5 -4,9 -5,10 14,-4 16,0 27,-2 8,-2 14,-6 16,-13 0,-1 1,-4 1,-6 -1,-1 -5,0 -6,0 -3,1 -3,1 -4,4 -3,9 -16,5 -29,7z"/>
   <path fill="#0A8C63" d="M8 92l-1 -2c2,1 5,1 7,0 1,0 1,-1 2,-1 0,-1 1,0 3,-3 4,-8 -4,-12 -4,-13 0,-1 1,-2 1,-4 1,-2 0,-2 -1,-3 -2,-3 -2,-5 -3,-8 -3,2 -5,10 -5,14 -1,1 0,1 -2,2 0,0 -1,1 -1,1 -2,3 -4,7 -2,10 1,2 2,3 3,4 0,0 2,1 2,1 0,1 0,1 1,2z"/>
   <path fill="#0A8C63" d="M147 74c1,0 1,-2 8,-1l0 -2c0,-6 -5,-14 -11,-17 -7,-5 -18,-4 -22,1 1,2 5,5 6,5 3,1 6,-2 10,0 4,3 8,8 9,14z"/>
   <path fill="#0A8C63" d="M8 92c0,2 1,5 2,6 4,11 14,17 27,13 0,-1 3,-2 4,-3 0,-1 -2,-2 -3,-3 -5,-5 -7,0 -13,-3 -2,-1 -5,-3 -6,-5 -1,-2 -2,-5 -3,-8 -1,0 -1,1 -2,1 -2,1 -5,1 -7,0l1 2z"/>
   <path fill="#0A8C63" d="M147 74c-1,1 -7,5 -2,13 1,1 2,2 3,3 1,0 0,0 2,0 0,1 1,1 2,1 2,0 3,-1 4,-1 3,-2 6,-4 6,-10 -1,-3 -3,-5 -5,-7 -3,-1 -1,0 -2,-2l0 2c-7,-1 -7,1 -8,1z"/>
   <path fill="#03214E" d="M128 141c0,-1 0,-1 -1,-2 -1,0 -4,-2 -4,-4l-1 0 -4 3c-3,2 -3,0 -4,3 -2,5 -4,6 -6,9 8,-1 16,-5 20,-9z"/>
   <path fill="#0A8C63" d="M148 90c0,1 -1,3 -1,4 -1,3 2,4 4,11 3,-4 5,-9 5,-15 -1,0 -2,1 -4,1 -1,0 -2,0 -2,-1 -2,0 -1,0 -2,0z"/>
  </g>
 </g>
</svg>
