<?xml version="1.0" encoding="UTF-8"?>
<!DOCTYPE svg PUBLIC "-//W3C//DTD SVG 1.1//EN" "http://www.w3.org/Graphics/SVG/1.1/DTD/svg11.dtd">
<!-- Creator: CorelDRAW X8 -->
<svg xmlns="http://www.w3.org/2000/svg" xml:space="preserve" width="272px" height="265px" version="1.1" shape-rendering="geometricPrecision" text-rendering="geometricPrecision" image-rendering="optimizeQuality" fill-rule="evenodd" clip-rule="evenodd"
viewBox="0 0 272 265"
 xmlns:xlink="http://www.w3.org/1999/xlink">
 <g id="Capa_x0020_1">
  <metadata id="CorelCorpID_0Corel-Layer"/>
  <g id="_2960285049120">
   <g>
    <path fill="#03214E" d="M79 115c-1,-2 -1,-2 -4,-3 -3,-1 -5,-3 -7,-5 -1,5 4,17 9,20 0,3 -1,3 0,6 2,8 12,6 12,6 1,2 3,3 4,4 16,12 35,1 34,-15 -2,0 -4,1 -6,1 -3,1 -2,1 -3,3 -4,8 -11,8 -17,5 -2,0 -3,-1 -4,-2 -2,-2 -2,-1 -2,-4 1,-6 -4,-10 -10,-10 -3,0 -2,0 -4,-2 -1,-1 -2,-2 -2,-4z"/>
    <path fill="#03214E" d="M88 71c0,-13 -6,-6 -10,-14 -3,-7 2,-14 5,-17 5,-1 7,0 10,-3 3,-3 2,-5 2,-10 4,-2 2,-2 7,-4 1,0 1,0 2,-2 2,-7 4,-6 5,-9 -7,0 -13,4 -18,8 -1,1 -1,1 -3,1 -2,0 -3,0 -6,1 -2,1 -3,2 -4,4 -3,5 0,6 -2,8 -6,7 -10,15 -6,25 2,7 9,13 18,12z"/>
    <path fill="#03214E" d="M145 32c3,1 8,0 9,-2 2,-4 2,-5 6,-7 7,-4 14,3 17,4 0,5 -1,6 2,10 4,3 5,2 10,3 1,0 4,5 4,6 2,3 2,1 7,4 2,1 3,3 4,3 0,-6 -3,-13 -7,-18 -1,-1 -2,-1 -2,-2 0,-3 1,-3 0,-6 -2,-4 -6,-6 -10,-6 -3,0 -1,1 -5,-2 -17,-14 -36,-1 -35,13z"/>
    <path fill="#0A8C63" d="M162 121c-1,0 -2,1 -3,3 -5,7 1,7 -2,13 -2,4 -8,8 -13,9 -5,-5 -12,-5 -16,1 -2,0 -3,-1 -4,-1 -2,-1 -3,0 -4,1 -4,3 -4,2 -7,3 1,3 14,6 15,6 1,1 1,2 3,3 3,2 8,2 11,0 1,-1 1,-2 3,-4 0,-1 3,-1 4,-1 11,-4 19,-12 18,-24 -1,-5 -3,-6 -5,-9z"/>
    <path fill="#0A8C63" d="M110 40c1,-1 4,-4 5,-6 0,-3 -5,-9 5,-16 2,-1 6,-3 8,-3 2,2 4,4 9,4 3,0 6,-3 7,-5 2,0 3,0 4,1 4,1 3,-3 11,-4 0,-1 0,-1 0,-1 -2,-1 -7,-3 -9,-4 -1,0 -4,0 -5,-1 -2,0 -1,-1 -4,-3 -4,-3 -9,-2 -12,2 0,0 -1,1 -1,2 -1,0 -4,1 -5,1 -11,4 -19,12 -18,24 1,3 3,7 5,9z"/>
    <path fill="#03214E" d="M177 134l0 0c1,2 3,4 4,5 2,0 2,0 2,1 1,-1 4,0 6,0 8,-2 6,-12 6,-12 3,-4 5,-6 7,-10 2,-5 2,-10 1,-14 -2,-8 -9,-15 -19,-14 0,2 0,6 1,8 2,1 4,1 6,3 6,5 4,14 -1,19 -2,3 -3,0 -8,2 -7,3 -5,11 -5,12z"/>
    <path fill="#03214E" d="M150 47c5,2 6,3 10,8 2,1 3,2 5,4 4,5 10,11 17,12 4,1 11,0 15,-4 -1,-1 -1,-1 -2,-2 -2,-2 -3,-4 -7,-3 -5,1 -9,-1 -12,-4 -1,-1 -2,-2 -3,-4 -3,-3 -7,-6 -10,-9 -1,-1 -1,-1 -2,-2 -1,0 -3,2 -5,2 -2,1 -5,1 -6,2z"/>
    <path fill="#03214E" d="M75 93c1,2 3,4 4,5 2,1 2,2 5,1 9,-2 14,7 19,11 1,1 1,1 1,1 3,3 5,5 7,7 4,-1 3,-3 11,-4 -1,-1 -3,-2 -6,-4 -3,-3 -14,-13 -14,-13 -5,-5 -12,-9 -20,-6 -3,0 -5,2 -7,2z"/>
    <path fill="#03214E" d="M99 56c0,1 1,3 2,5 0,1 1,5 1,6 3,-4 2,-6 8,-11 1,-1 2,-1 3,-2 3,-4 8,-8 11,-13 4,-7 3,-14 -1,-21 -2,0 -4,2 -4,3 -2,2 -2,3 -2,6 2,7 -3,11 -7,15 -2,2 -10,10 -11,12z"/>
    <path fill="#03214E" d="M149 141c3,-1 4,-3 5,-5 2,-3 0,-5 0,-8 1,-6 8,-11 13,-16l4 -4c4,-5 0,-3 -1,-14 -2,1 -2,6 -8,11 -1,1 -2,1 -3,2 -3,3 -9,8 -11,12 -3,7 -4,14 0,21l1 1c0,0 0,0 0,0z"/>
    <path fill="#0A8C63" d="M102 93c-1,-5 -2,-5 -2,-15 0,-9 0,-18 -7,-25 -3,-2 -8,-5 -13,-4 0,2 0,6 1,7 0,1 1,2 2,2 3,2 8,2 8,13 0,3 0,13 0,16 1,1 3,1 6,3 1,0 4,2 5,3z"/>
    <path fill="#0A8C63" d="M143 125c0,-1 1,-2 1,-3 0,-1 1,-2 1,-3 1,-1 3,-3 3,-4 -7,1 -5,2 -14,2 -5,0 -10,0 -15,1 -8,2 -14,8 -14,18 4,1 8,0 9,-3 1,-4 2,-5 6,-6 6,-3 17,0 23,-2z"/>
    <path fill="#0A8C63" d="M170 68c4,8 1,21 3,30 3,11 15,15 19,13 1,-3 -1,-8 -4,-9 -1,0 -2,-1 -4,-2 -5,-4 -1,-23 -3,-26 -1,-1 -5,-2 -6,-3 -2,-1 -4,-2 -5,-3z"/>
    <path fill="#0A8C63" d="M129 36c-1,5 -5,9 -5,10 14,-4 16,-1 26,-2 8,-2 14,-6 16,-13 1,-1 2,-4 1,-6 -1,-1 -4,0 -6,0 -2,1 -2,1 -3,4 -3,9 -17,5 -29,7z"/>
    <path fill="#0A8C63" d="M62 91l0 -2c2,1 5,1 7,0 1,0 0,-1 1,-1 1,-1 1,0 3,-3 4,-8 -3,-12 -3,-13 0,-1 0,-3 1,-4 0,-2 -1,-2 -2,-3 -1,-3 -2,-5 -3,-8 -2,2 -5,10 -5,14 0,1 0,1 -1,2 -1,0 -1,1 -2,1 -2,3 -3,7 -1,10 0,2 1,3 2,4 1,0 2,1 2,1 1,1 1,1 1,2z"/>
    <path fill="#0A8C63" d="M201 73c2,0 2,-2 9,-1l0 -2c-1,-6 -6,-14 -12,-17 -7,-5 -17,-4 -22,1 1,2 5,5 7,5 3,1 5,-2 10,0 4,3 8,8 8,14z"/>
    <path fill="#0A8C63" d="M62 91c0,2 1,5 2,6 5,11 15,17 27,13 1,-1 4,-2 4,-3 0,-1 -1,-2 -2,-3 -5,-5 -8,0 -14,-3 -2,-1 -4,-3 -5,-5 -2,-2 -3,-5 -4,-8 -1,0 0,1 -1,1 -2,1 -5,1 -7,0l0 2z"/>
    <path fill="#0A8C63" d="M201 73c0,1 -6,5 -2,13 1,1 3,2 3,3 1,0 1,0 2,0 1,1 1,1 2,1 3,0 3,-1 5,-1 3,-2 6,-4 5,-10 0,-3 -2,-5 -5,-7 -2,-1 0,0 -1,-2l0 2c-7,-1 -7,1 -9,1z"/>
    <path fill="#03214E" d="M183 140c0,-1 0,-1 -2,-1 -1,-1 -3,-3 -4,-5l0 0 -4 3c-3,2 -4,0 -5,3 -2,5 -3,6 -5,9 8,-1 16,-5 20,-9z"/>
    <path fill="#0A8C63" d="M202 89c0,1 0,3 -1,4 0,3 3,4 5,11 3,-4 4,-9 5,-15 -2,0 -2,1 -5,1 -1,0 -1,0 -2,-1 -1,0 -1,0 -2,0z"/>
   </g>
   <path fill="#0A8C63" fill-rule="nonzero" d="M0 249l0 1 4 0 0 12 2 0 0 -12 4 0 0 -1 -10 0zm17 3l0 5c0,2 -1,3 -3,3 -1,0 -2,-1 -2,-2l0 -6 -2 0 0 6c0,2 2,4 4,4 2,0 3,-1 3,-3l0 3 2 0 0 -10 -2 0zm23 0c-2,0 -3,1 -4,3 0,-2 -2,-3 -3,-3 -2,0 -3,1 -4,2l0 -2 -1 0 0 10 1 0 0 -5c0,-2 1,-4 3,-4 2,0 3,1 3,3l0 6 1 0 0 -5c0,-2 1,-4 3,-4 2,0 3,1 3,3l0 6 1 0 0 -6c0,-3 -1,-4 -3,-4zm10 0c-3,0 -5,2 -5,5 0,3 2,5 5,5 2,0 3,-1 4,-2l-1 -1c-1,1 -2,1 -3,1 -2,0 -3,-1 -3,-3l8 0c0,-3 -2,-5 -5,-5zm-3 4c0,-2 1,-3 3,-3 2,0 3,1 3,3l-6 0zm14 4c0,0 -1,0 -1,0 -1,0 -1,0 -1,-1l0 -5 3 0 0 -2 -3 0 0 -2 -2 0 0 2 -1 0 0 2 1 0 0 5c0,2 1,3 3,3 0,0 1,-1 2,-1l-1 -1zm10 2l0 -7c0,-2 -1,-3 -4,-3 -1,0 -2,1 -3,1l0 1c1,0 2,-1 3,-1 2,0 3,1 3,2l0 1 -3 0c-3,0 -4,1 -4,3 0,1 1,3 3,3 2,0 3,-1 4,-2l0 2 1 0zm-4 -2c-2,0 -3,0 -3,-1 0,-1 1,-2 3,-2l3 0 0 1c-1,2 -2,2 -3,2zm7 0c0,0 0,0 0,1 0,0 0,0 0,1l-1 1 1 0 1 -1c0,-1 0,-1 0,-1 0,-1 0,-1 -1,-1zm11 -6l0 -2 -2 0 0 10 2 0 0 -5c0,-2 1,-4 3,-4l0 -1c-2,0 -3,1 -3,2zm9 -2c-3,0 -5,2 -5,5 0,3 2,5 5,5 1,0 3,-1 3,-2l0 -1c-1,1 -2,1 -3,1 -2,0 -3,-1 -4,-3l8 0c0,-3 -1,-5 -4,-5zm-4 4c0,-2 2,-3 4,-3 1,0 3,1 3,3l-7 0zm15 -2l1 -1c-1,-1 -2,-1 -3,-1 -2,0 -3,1 -3,3 0,3 5,2 5,4 0,1 -1,1 -2,1 -1,0 -3,0 -3,-1l-1 1c1,1 2,2 4,2 2,0 3,-1 3,-3 0,-3 -5,-2 -5,-4 0,-1 1,-2 2,-2 1,0 2,1 2,1zm9 -2c-2,0 -3,1 -4,2l0 -2 -1 0 0 13 1 0 0 -5c1,1 2,2 4,2 2,0 4,-2 4,-5 0,-3 -2,-5 -4,-5zm-1 8c-2,0 -3,-1 -3,-3 0,-2 1,-4 3,-4 2,0 4,2 4,4 0,2 -2,3 -4,3zm15 2l0 -7c0,-2 -1,-3 -4,-3 -1,0 -2,1 -4,1l1 1c1,0 2,-1 3,-1 2,0 2,1 2,2l0 1 -3 0c-2,0 -3,1 -3,3 0,1 1,3 3,3 2,0 3,-1 4,-2l0 2 1 0zm-5 -2c-1,0 -2,0 -2,-1 0,-1 1,-2 3,-2l2 0 0 1c0,2 -1,2 -3,2zm8 -12l0 14 1 0 0 -14 -1 0zm12 0l0 6c0,-1 -2,-2 -3,-2 -3,0 -5,2 -5,5 0,3 2,5 5,5 1,0 3,-1 3,-2l0 2 2 0 0 -14 -2 0zm-3 12c-2,0 -4,-1 -4,-3 0,-2 2,-4 4,-4 2,0 3,2 3,4 0,2 -1,3 -3,3zm15 2l0 -7c0,-2 -1,-3 -3,-3 -2,0 -3,1 -4,1l0 1c1,0 2,-1 3,-1 2,0 3,1 3,2l0 1 -3 0c-2,0 -4,1 -4,3 0,1 2,3 4,3 1,0 2,-1 3,-2l0 2 1 0zm-4 -2c-1,0 -2,0 -2,-1 0,-1 0,-2 2,-2l3 0 0 1c0,2 -2,2 -3,2zm15 -12l0 6c-1,-1 -2,-2 -4,-2 -3,0 -4,2 -4,5 0,3 1,5 4,5 2,0 3,-1 4,-2l0 2 1 0 0 -14 -1 0zm-4 12c-2,0 -3,-1 -3,-3 0,-2 1,-4 3,-4 2,0 4,2 4,4 0,2 -2,3 -4,3zm16 2l0 -7c0,-2 -1,-3 -4,-3 -1,0 -2,1 -4,1l1 1c1,0 2,-1 3,-1 2,0 3,1 3,2l0 1 -4 0c-2,0 -3,1 -3,3 0,1 1,3 3,3 2,0 3,-1 4,-2l0 2 1 0zm-5 -2c-1,0 -2,0 -2,-1 0,-1 1,-2 3,-2l3 0 0 1c-1,2 -2,2 -4,2zm19 -8c-2,0 -3,1 -4,2l0 -2 -2 0 0 13 2 0 0 -5c1,1 2,2 4,2 2,0 4,-2 4,-5 0,-3 -2,-5 -4,-5zm-1 8c-2,0 -3,-1 -3,-3 0,-2 1,-4 3,-4 2,0 4,2 4,4 0,2 -2,3 -4,3zm11 -8c-2,0 -4,2 -4,5 0,3 2,5 4,5 3,0 5,-2 5,-5 0,-3 -2,-5 -5,-5zm0 1c2,0 4,2 4,4 0,2 -2,3 -4,3 -2,0 -3,-1 -3,-3 0,-2 1,-4 3,-4zm9 1l0 -2 -1 0 0 10 1 0 0 -5c0,-2 1,-4 3,-4l0 -1c-1,0 -2,1 -3,2zm15 6c0,0 -1,0 -1,0 -1,0 -2,0 -2,-1l0 -5 3 0 0 -2 -3 0 0 -2 -1 0 0 2 -1 0 0 2 1 0 0 5c0,2 1,3 2,3 1,0 2,-1 3,-1l-1 -1zm6 -8c-2,0 -4,2 -4,5 0,3 2,5 4,5 3,0 5,-2 5,-5 0,-3 -2,-5 -5,-5zm0 1c2,0 4,2 4,4 0,2 -2,3 -4,3 -2,0 -3,-1 -3,-3 0,-2 1,-4 3,-4zm15 -5l0 6c-1,-1 -2,-2 -4,-2 -2,0 -4,2 -4,5 0,3 2,5 4,5 2,0 3,-1 4,-2l0 2 1 0 0 -14 -1 0zm-4 12c-2,0 -3,-1 -3,-3 0,-2 1,-4 3,-4 2,0 4,2 4,4 0,2 -2,3 -4,3zm13 -8c-3,0 -5,2 -5,5 0,3 2,5 5,5 2,0 4,-2 4,-5 0,-3 -2,-5 -4,-5zm0 1c2,0 3,2 3,4 0,2 -1,3 -3,3 -2,0 -4,-1 -4,-3 0,-2 2,-4 4,-4zm12 1l0 -1c0,-1 -2,-1 -3,-1 -1,0 -3,1 -3,3 0,3 5,2 5,4 0,1 -1,1 -2,1 -1,0 -2,0 -3,-1l0 1c0,1 2,2 3,2 2,0 4,-1 4,-3 0,-3 -6,-2 -6,-4 0,-1 1,-2 2,-2 1,0 2,1 3,1zm3 6c0,0 -1,0 -1,1 0,0 1,1 1,1 1,0 1,-1 1,-1 0,-1 0,-1 -1,-1z"/>
   <g>
    <path fill="#03214E" fill-rule="nonzero" d="M68 185l4 -5c-2,-3 -7,-5 -11,-5 -8,0 -15,6 -15,14 0,8 7,14 15,14 4,0 8,-2 11,-5l-4 -4c-2,2 -4,3 -7,3 -4,0 -7,-4 -7,-8 0,-4 3,-8 7,-8 3,0 5,2 7,4zm12 -19l-4 7 5 0 5 -5 -6 -2zm-5 9l0 28 8 0 0 -28 -8 0zm38 28l-6 -9c3,-2 5,-5 5,-9 0,-6 -4,-10 -11,-10l-13 0 0 28 7 0 0 -8 6 0 0 0 4 8 8 0zm-18 -22l6 0c3,0 4,1 4,4 0,3 -1,5 -4,5l-6 0 0 -9zm42 4l4 -5c-3,-3 -7,-5 -11,-5 -9,0 -15,6 -15,14 0,8 6,14 15,14 4,0 8,-2 11,-5l-4 -4c-2,2 -5,3 -7,3 -4,0 -7,-4 -7,-8 0,-4 3,-8 7,-8 2,0 5,2 7,4zm14 6l0 -16 -7 0 0 16c0,8 5,12 13,12 8,0 12,-4 12,-12l0 -16 -7 0 0 16c0,4 -2,6 -5,6 -4,0 -6,-2 -6,-6zm23 -16l0 28 19 0 0 -6 -11 0 0 -22 -8 0zm36 0c-9,0 -15,6 -15,14 0,8 6,14 15,14 9,0 15,-6 15,-14 0,-8 -6,-14 -15,-14zm0 6c4,0 7,4 7,8 0,5 -3,8 -7,8 -4,0 -8,-3 -8,-8 0,-4 4,-8 8,-8z"/>
    <path fill="#03214E" fill-rule="nonzero" d="M32 213l-12 0 0 26 11 0c9,0 14,-6 14,-13 0,-8 -5,-13 -13,-13zm0 20l-5 0 0 -15 4 0c5,0 7,3 7,8 0,4 -2,7 -6,7zm17 -20l0 26 20 0 0 -6 -14 0 0 -5 13 0 0 -5 -13 0 0 -5 14 0 0 -5 -20 0zm55 26l7 0 -11 -26 -7 0 -11 26 7 0 2 -5 11 0 2 5zm-11 -10l3 -9 4 9 -7 0zm20 -16l0 26 7 0 0 -10 10 0 0 10 7 0 0 -26 -7 0 0 10 -10 0 0 -10 -7 0zm41 0c-8,0 -13,5 -13,13 0,7 5,13 13,13 8,0 14,-6 14,-13 0,-8 -6,-13 -14,-13zm1 5c3,0 7,4 7,8 0,4 -4,7 -7,7 -4,0 -8,-3 -8,-7 0,-4 4,-8 8,-8zm40 21l-5 -9c3,-1 4,-4 4,-8 0,-6 -4,-9 -11,-9l-11 0 0 26 7 0 0 -7 4 0 1 0 3 7 8 0zm-16 -21l4 0c3,0 5,2 5,4 0,3 -2,4 -5,4l-4 0 0 -8zm43 21l-6 -9c3,-1 5,-4 5,-8 0,-6 -4,-9 -11,-9l-11 0 0 26 6 0 0 -7 5 0 0 0 4 7 8 0zm-17 -21l5 0c3,0 5,2 5,4 0,3 -2,4 -5,4l-5 0 0 -8zm33 -5c-8,0 -14,5 -14,13 0,7 6,13 14,13 8,0 14,-6 14,-13 0,-8 -6,-13 -14,-13zm0 5c4,0 7,4 7,8 0,4 -3,7 -7,7 -4,0 -7,-3 -7,-7 0,-4 3,-8 7,-8z"/>
   </g>
  </g>
 </g>
</svg>
