<?xml version="1.0" encoding="UTF-8"?>
<!DOCTYPE svg PUBLIC "-//W3C//DTD SVG 1.1//EN" "http://www.w3.org/Graphics/SVG/1.1/DTD/svg11.dtd">
<!-- Creator: CorelDRAW X8 -->
<svg xmlns="http://www.w3.org/2000/svg" xml:space="preserve" version="1.1" style="shape-rendering:geometricPrecision; text-rendering:geometricPrecision; image-rendering:optimizeQuality; fill-rule:evenodd; clip-rule:evenodd"
viewBox="7500 8200 5100 5000"
 xmlns:xlink="http://www.w3.org/1999/xlink">
 <defs>
  <style type="text/css">
   <![CDATA[
    .fil1 {fill:#048D62}
    .fil0 {fill:#05214D}
   ]]>
  </style>
 </defs>
 <g id="Capa_x0020_1">
  <metadata id="CorelCorpID_0Corel-Layer"/>
  <path class="fil0" d="M8259 11844c-59,-135 -49,-36 -225,-157l-82 -63c-27,-23 1,-7 -31,-19 14,138 48,242 104,359 25,54 76,128 113,171 13,15 16,17 26,29 23,27 39,31 36,65 -7,73 -22,129 19,197 30,50 62,80 110,109 49,29 121,43 184,31 48,-10 41,-9 72,20 97,91 210,164 357,203 372,100 757,-163 744,-559 -63,-4 -117,5 -174,24 -16,5 -59,19 -71,26 -28,19 -16,23 -31,58 -36,88 -95,168 -187,194 -113,32 -223,13 -317,-32 -30,-14 -35,-20 -59,-38 -125,-92 -101,-23 -98,-165 4,-160 -128,-293 -296,-281 -85,6 -70,7 -118,-54 -29,-38 -55,-71 -76,-118z"/>
  <path class="fil0" d="M10224 9387c81,-3 237,-5 271,-95 38,-105 71,-150 161,-195 216,-109 414,78 514,134 -15,127 -8,212 69,288 96,96 149,76 295,78 13,31 27,39 47,67 89,130 65,162 131,185 56,19 98,39 143,67 72,45 64,53 107,81 17,12 -7,0 20,12 -15,-227 -131,-453 -247,-572 -54,-56 44,-198 -121,-325 -117,-91 -170,-58 -271,-54 -50,-68 -181,-156 -285,-200 -397,-170 -850,90 -834,529z"/>
  <path class="fil0" d="M8738 9234c35,-29 82,-60 127,-89 51,-33 107,-34 128,-92 78,-221 130,-208 162,-274 -225,21 -348,84 -515,206 -87,63 -66,75 -126,68 -144,-18 -269,58 -313,182 -27,79 -3,111 -7,181 -163,143 -299,472 -224,706 21,65 46,119 77,167 99,157 279,253 484,253 0,-91 -15,-237 -90,-274 -98,-48 -148,-51 -194,-154 -108,-242 103,-505 133,-517 30,-12 401,81 358,-363z"/>
  <path class="fil1" d="M10730 12008c-46,26 -138,124 -149,192 -15,90 59,162 -7,290 -32,61 -103,141 -159,173 -59,32 -162,86 -236,95 -98,-120 -255,-158 -384,-67 -31,21 -54,65 -86,89 -110,-15 -140,-62 -191,-26 -120,85 -108,77 -255,125 33,51 202,108 277,130 41,11 139,16 167,36 32,23 49,72 97,105 97,68 234,50 317,-12 45,-33 69,-92 90,-112 35,-34 434,-81 591,-406 51,-106 78,-204 57,-347 -13,-97 -75,-228 -129,-265z"/>
  <path class="fil1" d="M10193 8838c54,1 92,15 139,26 53,13 67,-16 102,-38 91,-58 194,-80 211,-93 -37,-48 -196,-105 -273,-129 -35,-11 -154,-25 -170,-33 -13,-6 -37,-43 -49,-55 -101,-102 -247,-118 -357,-37 -77,58 -68,89 -91,112 -33,34 -220,37 -417,190 -280,217 -336,587 -114,825 48,-19 92,-82 124,-134 62,-100 7,-106 5,-204 -5,-228 200,-348 382,-398 74,-20 50,38 159,84 150,64 313,-19 349,-116z"/>
  <path class="fil1" d="M11169 12394c24,8 12,11 33,46 17,29 66,73 89,90 27,19 36,7 61,27 140,18 208,17 291,-68 84,-86 75,-143 66,-281 19,-22 34,-39 58,-64 23,-25 36,-45 53,-69 114,-157 170,-381 116,-580 -64,-235 -257,-425 -560,-413 -3,79 9,173 45,232 42,70 79,16 175,100 152,134 115,398 -43,580 -34,39 -49,25 -111,24 -113,-4 -206,57 -257,159 -49,99 -3,179 -16,217z"/>
  <path class="fil0" d="M10359 9810c52,42 123,55 177,105 23,22 50,42 75,62l276 283c108,113 243,231 435,263 153,25 350,-17 431,-105 -18,-50 -74,-103 -104,-127 -139,-113 -167,37 -367,-53 -111,-50 -133,-94 -190,-150 -24,-24 -37,-31 -57,-56 -55,-69 -261,-272 -346,-332 -40,10 -100,53 -153,70 -46,15 -145,22 -177,40z"/>
  <path class="fil0" d="M8154 11195c10,20 0,12 18,38 7,10 14,18 25,32 22,31 21,37 56,58 74,45 68,59 177,36 77,-16 119,-5 187,21 64,24 97,56 139,87l455 453c49,-9 103,-49 156,-70 58,-23 121,-23 177,-42 -27,-27 -223,-121 -313,-240 -36,-48 -92,-89 -138,-137 -17,-18 -17,-21 -36,-38 -49,-44 -75,-85 -99,-103 -54,-43 -181,-140 -257,-164 -32,-10 -79,-20 -112,-25 -166,-29 -320,17 -435,94z"/>
  <path class="fil0" d="M9563 9009c-54,13 -120,95 -148,134 -90,127 158,247 -235,583 -99,85 -232,224 -318,324 -52,59 54,69 90,364l29 -52c9,-19 16,-30 25,-48 83,-161 193,-225 259,-300 56,-63 210,-202 240,-246 33,-46 40,-40 88,-123 117,-208 108,-480 -30,-636z"/>
  <path class="fil0" d="M10338 12608c64,-23 129,-83 158,-139 77,-147 -126,-245 159,-506 28,-26 16,-24 68,-69l286 -281c77,-93 51,-59 2,-181 -33,-84 -38,-138 -56,-229 -22,24 -33,65 -49,96 -40,77 -114,174 -181,232 -19,16 -24,15 -39,34 -74,90 -188,160 -312,320l-57 81c-37,68 -50,119 -71,206 -18,77 -13,166 9,243 39,136 71,143 83,193z"/>
  <path class="fil1" d="M8792 11084l148 87c-7,-62 -38,-126 -49,-195 -34,-199 22,-438 -45,-674 -23,-81 -36,-108 -74,-170 -30,-49 -71,-103 -106,-130 -110,-87 -177,-126 -362,-121 -23,305 64,245 168,308 104,63 140,190 142,342 1,75 -5,430 15,473 9,18 108,53 163,80z"/>
  <path class="fil0" d="M10964 10453c17,60 41,123 53,194 52,297 -82,708 225,967 89,75 263,145 360,114 31,-106 -12,-246 -94,-267 -55,-14 -88,-38 -122,-64 -161,-126 -50,-723 -112,-793 -29,-19 -51,-18 -85,-30 -25,-10 -51,-24 -77,-37 -27,-14 -46,-25 -72,-41 -30,-18 -43,-33 -76,-43z"/>
  <path class="fil1" d="M9594 9797c175,-45 229,-66 431,-63 281,5 547,2 738,-215 55,-62 144,-242 108,-360 -2,-1 -5,-2 -6,-3 -2,0 -5,-2 -7,-2l-80 -4c-86,8 -149,34 -171,109 -91,309 -530,171 -862,232 -18,38 -10,61 -63,163l-88 143z"/>
  <path class="fil1" d="M10165 12129c23,-68 27,-102 62,-165l83 -145c-35,8 -56,20 -94,30 -142,35 -156,37 -321,36 -150,-1 -307,-6 -446,31 -238,65 -432,242 -423,536 117,20 243,7 274,-86 20,-59 31,-85 67,-119 192,-180 560,-53 798,-118z"/>
  <path class="fil1" d="M7746 11067c67,17 135,27 204,-2 39,-17 31,-22 55,-17 14,-39 22,-26 47,-52 67,-67 95,-213 38,-320 -70,-131 -129,-40 -86,-205 37,-144 -4,-16 -123,-355 -12,9 -5,3 -15,13 -76,81 -136,340 -141,436 -85,30 -156,144 -151,266 6,131 91,185 172,236z"/>
  <path class="fil0" d="M7746 11067c30,242 201,459 340,561 170,125 504,120 666,-33 -9,-53 -120,-132 -181,-153 -72,-24 -158,44 -290,-10 -66,-27 -104,-66 -139,-112 -78,-101 -88,-133 -137,-272 -24,-5 -16,0 -55,17 -69,29 -137,19 -204,2z"/>
  <path class="fil0" d="M11896 10581c28,12 70,-56 187,-44 82,9 50,22 65,-3 -20,-156 -112,-358 -217,-451 -67,-59 -33,-41 -121,-98 -169,-109 -341,-114 -523,-40 -91,37 -99,62 -136,82 19,45 124,138 191,151 88,17 158,-57 282,2 136,64 238,213 272,401z"/>
  <path class="fil1" d="M11896 10581c-20,42 -120,87 -109,250 4,57 24,96 48,134 50,80 68,44 86,93 16,-10 0,-6 19,-3 32,7 98,62 234,1l0 41c14,-59 1,-37 48,-70 156,-110 148,-340 -12,-445 -65,-43 -45,-7 -62,-48 -15,25 17,12 -65,3 -117,-12 -159,56 -187,44z"/>
  <path class="fil0" d="M11352 12557c-25,-20 -34,-8 -61,-27 -23,-17 -72,-61 -89,-90 -21,-35 -9,-38 -33,-46l-105 68c-126,98 -116,17 -152,115 -19,54 -47,108 -73,146 -15,22 -30,39 -45,59 -16,20 -36,34 -51,57 269,-23 490,-144 609,-282z"/>
  <path class="fil0" d="M11921 11058c-17,170 -76,94 15,235 45,71 64,128 91,216 59,-59 142,-301 147,-412l0 -41c-136,61 -202,6 -234,-1 -19,-3 -3,-7 -19,3z"/>
 </g>
</svg>
