<?xml version="1.0" encoding="UTF-8"?>
<!DOCTYPE svg PUBLIC "-//W3C//DTD SVG 1.1//EN" "http://www.w3.org/Graphics/SVG/1.1/DTD/svg11.dtd">
<!-- Creator: CorelDRAW X8 -->
<svg xmlns="http://www.w3.org/2000/svg" xml:space="preserve" width="234px" height="76px" version="1.1" shape-rendering="geometricPrecision" text-rendering="geometricPrecision" image-rendering="optimizeQuality" fill-rule="evenodd" clip-rule="evenodd"
viewBox="0 0 234 75"
 xmlns:xlink="http://www.w3.org/1999/xlink">
 <g id="Capa_x0020_1">
  <metadata id="CorelCorpID_0Corel-Layer"/>
  <g id="_2995598350096">
   <path fill="#03214E" fill-rule="nonzero" d="M49 20l4 -5c-2,-3 -7,-5 -11,-5 -8,0 -15,6 -15,14 0,8 7,15 15,15 4,0 8,-3 11,-6l-4 -4c-2,2 -4,3 -7,3 -4,0 -7,-3 -7,-8 0,-4 3,-8 7,-8 3,0 5,2 7,4zm12 -19l-4 7 5 0 5 -4 -6 -3zm-4 9l0 28 7 0 0 -28 -7 0zm37 28l-6 -9c3,-2 5,-5 5,-9 0,-6 -4,-10 -11,-10l-13 0 0 28 7 0 0 -7 6 0 0 0 4 7 8 0zm-18 -22l6 0c3,0 4,2 4,4 0,3 -1,5 -4,5l-6 0 0 -9zm42 4l4 -5c-3,-3 -7,-5 -11,-5 -9,0 -15,6 -15,14 0,8 6,15 15,15 4,0 8,-3 11,-6l-4 -4c-2,2 -5,3 -7,3 -4,0 -7,-3 -7,-8 0,-4 3,-8 7,-8 2,0 5,2 7,4zm14 7l0 -17 -7 0 0 17c0,7 5,12 13,12 7,0 12,-5 12,-12l0 -17 -7 0 0 17c0,3 -2,5 -5,5 -4,0 -6,-2 -6,-5zm23 -17l0 28 19 0 0 -6 -11 0 0 -22 -8 0zm36 0c-9,0 -15,6 -15,14 0,8 6,15 15,15 8,0 15,-7 15,-15 0,-8 -7,-14 -15,-14zm0 6c4,0 7,4 7,8 0,5 -3,8 -7,8 -4,0 -8,-3 -8,-8 0,-4 4,-8 8,-8z"/>
   <path fill="#03214E" fill-rule="nonzero" d="M13 48l-11 0 0 26 10 0c9,0 14,-5 14,-13 0,-8 -5,-13 -13,-13zm0 20l-5 0 0 -15 5 0c4,0 7,4 7,8 0,4 -3,7 -7,7zm17 -20l0 26 21 0 0 -6 -14 0 0 -4 12 0 0 -6 -12 0 0 -5 13 0 0 -5 -20 0zm55 26l7 0 -11 -26 -7 0 -11 26 7 0 2 -5 11 0 2 5zm-11 -10l3 -9 4 9 -7 0zm20 -16l0 26 7 0 0 -10 10 0 0 10 7 0 0 -26 -7 0 0 11 -10 0 0 -11 -7 0zm41 0c-8,0 -14,5 -14,13 0,7 6,13 14,13 8,0 14,-6 14,-13 0,-8 -6,-13 -14,-13zm1 6c3,0 7,3 7,7 0,4 -4,7 -7,7 -4,0 -8,-3 -8,-7 0,-4 4,-7 8,-7zm40 20l-5 -9c3,-1 4,-4 4,-8 0,-6 -4,-9 -11,-9l-11 0 0 26 7 0 0 -7 4 0 1 0 3 7 8 0zm-16 -21l4 0c3,0 5,2 5,4 0,3 -2,4 -5,4l-4 0 0 -8zm43 21l-6 -9c3,-1 5,-4 5,-8 0,-6 -4,-9 -11,-9l-12 0 0 26 7 0 0 -7 5 0 0 0 4 7 8 0zm-17 -21l5 0c3,0 4,2 4,4 0,3 -1,4 -4,4l-5 0 0 -8zm33 -5c-8,0 -14,5 -14,13 0,7 6,13 14,13 8,0 13,-6 13,-13 0,-8 -5,-13 -13,-13zm0 6c3,0 7,3 7,7 0,4 -4,7 -7,7 -4,0 -8,-3 -8,-7 0,-4 4,-7 8,-7z"/>
  </g>
 </g>
</svg>
