<?xml version="1.0" encoding="UTF-8"?>
<!DOCTYPE svg PUBLIC "-//W3C//DTD SVG 1.1//EN" "http://www.w3.org/Graphics/SVG/1.1/DTD/svg11.dtd">
<!-- Creator: CorelDRAW X8 -->
<svg xmlns="http://www.w3.org/2000/svg" xml:space="preserve" width="210mm" height="297mm" version="1.1" style="shape-rendering:geometricPrecision; text-rendering:geometricPrecision; image-rendering:optimizeQuality; fill-rule:evenodd; clip-rule:evenodd"
viewBox="0 0 21000 29700"
 xmlns:xlink="http://www.w3.org/1999/xlink">
 <defs>
  <style type="text/css">
   <![CDATA[
    .fil1 {fill:#048D62}
    .fil0 {fill:#05214D}
    .fil2 {fill:#F8F8F3}
   ]]>
  </style>
 </defs>
 <g id="Capa_x0020_1">
  <metadata id="CorelCorpID_0Corel-Layer"/>
  <g id="_1726583423344">
   <g>
    <path class="fil0" d="M4537 14774c-30,-67 -24,-18 -113,-78l-41 -32c-13,-11 1,-4 -16,-10 7,70 25,122 52,181 13,27 39,64 57,85 7,8 8,9 14,15 11,13 19,15 17,32 -3,37 -10,65 10,99 15,25 31,40 55,55 25,14 61,21 92,15 25,-5 21,-4 37,10 48,46 105,82 179,102 186,50 379,-81 372,-280 -31,-2 -58,2 -87,12 -8,3 -30,9 -35,13 -14,9 -9,11 -16,29 -18,44 -48,84 -94,97 -56,16 -111,7 -159,-16 -15,-7 -17,-10 -29,-19 -63,-46 -51,-12 -49,-83 2,-80 -65,-147 -149,-141 -43,3 -35,4 -59,-27 -14,-19 -28,-35 -38,-59z"/>
    <path class="fil0" d="M5522 13542c41,-1 119,-2 136,-47 19,-53 36,-75 81,-98 108,-54 207,39 257,67 -7,64 -4,106 35,145 48,48 75,38 148,39 6,15 14,19 23,33 45,65 33,82 66,93 28,10 49,20 72,34 36,22 32,26 53,41 9,5 -3,-1 11,5 -8,-113 -66,-227 -125,-286 -27,-28 23,-100 -60,-164 -59,-45 -85,-29 -136,-26 -25,-35 -91,-79 -143,-101 -199,-85 -426,45 -418,265z"/>
    <path class="fil0" d="M4777 13466c18,-15 41,-30 64,-45 25,-17 54,-17 64,-46 39,-111 65,-104 81,-137 -113,10 -174,42 -258,103 -44,32 -33,38 -63,34 -73,-9 -135,29 -157,91 -14,40 -2,56 -4,91 -81,71 -149,236 -112,354 10,32 23,60 39,84 50,79 140,127 242,126 0,-45 -7,-118 -45,-137 -49,-24 -74,-25 -97,-77 -54,-122 52,-253 67,-259 15,-6 200,41 179,-182z"/>
    <path class="fil1" d="M5776 14857c-23,12 -70,61 -75,96 -7,45 30,81 -4,145 -16,31 -51,71 -79,87 -30,16 -81,43 -119,48 -49,-61 -127,-80 -192,-34 -16,11 -27,32 -43,45 -55,-8 -70,-31 -96,-13 -60,42 -54,38 -128,62 17,26 101,54 139,65 21,6 70,9 84,18 16,12 25,37 48,53 49,34 118,25 159,-6 23,-17 35,-46 45,-56 18,-17 218,-41 297,-204 26,-53 39,-102 29,-174 -7,-48 -38,-114 -65,-132z"/>
    <path class="fil1" d="M5507 13267c26,1 46,8 69,13 27,7 34,-8 51,-19 46,-29 97,-40 106,-47 -19,-23 -98,-52 -137,-64 -17,-6 -77,-12 -85,-16 -7,-4 -19,-22 -25,-28 -50,-52 -123,-59 -179,-19 -38,29 -34,45 -45,56 -17,17 -110,19 -209,96 -140,108 -168,294 -57,413 24,-9 46,-41 62,-67 31,-50 4,-53 2,-102 -2,-115 101,-175 192,-200 37,-10 25,19 79,43 76,31 158,-10 176,-59z"/>
    <path class="fil1" d="M5996 15050c12,4 6,5 16,23 9,15 33,37 45,45 14,10 18,4 31,14 70,9 104,8 145,-34 43,-44 38,-72 34,-141 9,-11 16,-20 29,-33 11,-12 17,-22 26,-34 57,-79 85,-191 58,-291 -32,-117 -129,-213 -280,-207 -2,40 4,87 22,117 21,35 40,7 88,50 76,67 58,199 -22,291 -17,19 -24,12 -55,11 -57,-1 -104,29 -129,80 -25,50 -2,90 -8,109z"/>
    <path class="fil0" d="M5590 13755c26,21 62,27 88,52 12,11 26,21 38,31l139 142c54,57 121,116 217,132 77,12 176,-9 217,-53 -10,-25 -37,-51 -52,-63 -70,-57 -84,18 -184,-27 -56,-25 -67,-47 -96,-75 -12,-12 -19,-16 -29,-28 -27,-35 -130,-137 -173,-166 -20,4 -50,26 -77,35 -22,7 -72,10 -88,20z"/>
    <path class="fil0" d="M4484 14449c5,10 0,6 9,19 4,5 8,9 13,16 11,15 10,19 28,29 37,22 34,29 89,18 38,-8 60,-2 94,11 32,12 48,28 69,43l228 227c25,-4 52,-24 79,-35 29,-11 60,-11 88,-21 -14,-13 -112,-60 -157,-120 -18,-24 -46,-45 -69,-69 -8,-9 -8,-10 -18,-19 -24,-22 -38,-42 -49,-52 -28,-21 -91,-70 -130,-82 -15,-5 -39,-10 -56,-12 -83,-15 -160,8 -218,47z"/>
    <path class="fil0" d="M5191 13353c-27,7 -61,48 -75,67 -44,64 80,124 -118,293 -49,42 -115,112 -159,162 -26,29 28,35 45,182l15 -26c4,-9 8,-15 13,-24 41,-80 96,-113 129,-150 28,-32 105,-101 121,-123 16,-24 20,-21 44,-62 58,-104 54,-241 -15,-319z"/>
    <path class="fil0" d="M5579 15157c33,-11 65,-41 80,-70 38,-73 -63,-122 79,-253 14,-13 8,-12 34,-35l144 -141c38,-46 25,-29 1,-90 -17,-42 -19,-69 -29,-115 -11,12 -16,33 -24,48 -20,39 -57,87 -91,116 -9,8 -12,8 -19,17 -37,45 -94,81 -157,161l-28 40c-19,34 -26,60 -36,104 -9,38 -7,83 4,122 20,68 36,71 42,96z"/>
    <path class="fil1" d="M4804 14393l74 44c-3,-31 -19,-63 -24,-98 -17,-100 11,-219 -23,-338 -11,-40 -18,-54 -37,-85 -15,-25 -35,-52 -53,-65 -55,-44 -89,-63 -182,-61 -11,153 32,123 85,154 52,32 70,96 71,172 1,38 -2,216 8,237 4,9 54,26 81,40z"/>
    <path class="fil0" d="M5893 14077c9,30 20,61 27,97 26,149 -41,355 113,485 44,38 131,73 180,57 15,-53 -6,-123 -47,-134 -28,-7 -44,-19 -61,-32 -81,-63 -25,-362 -57,-397 -14,-10 -25,-9 -42,-16 -13,-4 -26,-11 -39,-18 -13,-7 -23,-12 -36,-20 -15,-9 -22,-17 -38,-22z"/>
    <path class="fil1" d="M5206 13748c88,-22 115,-33 216,-32 141,3 274,1 370,-107 28,-32 73,-122 55,-181 -1,-1 -3,-1 -4,-1 -1,-1 -2,-1 -3,-1l-40 -2c-43,4 -75,17 -86,55 -46,154 -266,85 -432,116 -9,18 -5,30 -32,81l-44 72z"/>
    <path class="fil1" d="M5493 14917c11,-34 13,-51 31,-83l41 -72c-17,4 -28,10 -47,15 -71,18 -78,18 -161,18 -75,-1 -154,-3 -223,15 -120,33 -217,122 -212,269 58,10 121,4 137,-43 10,-30 15,-43 33,-60 97,-90 281,-27 401,-59z"/>
    <path class="fil1" d="M4280 14385c33,8 67,13 102,-1 20,-9 16,-11 28,-9 7,-20 11,-13 23,-26 34,-34 48,-107 19,-160 -35,-66 -64,-20 -43,-103 19,-72 -2,-8 -61,-178 -7,5 -3,1 -8,7 -38,40 -68,170 -71,218 -43,15 -78,72 -75,133 3,66 45,93 86,119z"/>
    <path class="fil0" d="M4280 14385c15,121 101,230 170,281 85,62 253,60 334,-17 -5,-26 -60,-66 -91,-76 -36,-12 -79,22 -145,-5 -33,-14 -52,-33 -70,-56 -39,-51 -44,-67 -68,-137 -12,-2 -8,0 -28,9 -35,14 -69,9 -102,1z"/>
    <path class="fil0" d="M6360 14141c14,6 36,-28 94,-22 41,4 25,11 33,-2 -11,-78 -57,-179 -109,-226 -34,-29 -17,-20 -61,-49 -85,-54 -171,-57 -262,-20 -46,19 -50,31 -68,41 9,23 62,69 96,76 44,8 79,-28 141,1 68,32 119,107 136,201z"/>
    <path class="fil1" d="M6360 14141c-10,21 -60,44 -54,125 2,29 12,48 24,68 25,40 34,21 43,46 8,-5 0,-3 9,-1 16,3 49,31 117,0l1 21c7,-30 0,-19 24,-35 78,-56 74,-171 -6,-224 -33,-21 -23,-3 -31,-24 -8,13 8,6 -33,2 -58,-6 -80,28 -94,22z"/>
    <path class="fil0" d="M6088 15132c-13,-10 -17,-4 -31,-14 -12,-8 -36,-30 -45,-45 -10,-18 -4,-19 -16,-23l-53 34c-63,49 -58,8 -76,58 -10,27 -24,54 -37,73 -7,11 -14,20 -22,30 -8,10 -18,16 -26,28 135,-11 246,-72 306,-141z"/>
    <path class="fil0" d="M6373 14380c-9,85 -38,48 7,118 23,35 32,64 46,109 30,-30 71,-151 74,-207l-1 -21c-68,31 -101,3 -117,0 -9,-2 -1,-4 -9,1z"/>
   </g>
   <g>
    <path class="fil0" d="M12376 13609c314,-51 380,424 84,485 -302,63 -406,-433 -84,-485zm468 301c24,-172 -55,-329 -204,-415 -43,-25 -102,-43 -159,-50 -231,-30 -458,98 -493,338 -83,576 784,649 856,127z"/>
    <path class="fil0" d="M8997 13612c270,-57 374,127 263,224 -37,32 -193,56 -247,37 -25,-9 -15,-207 -16,-261zm340 379c46,-34 65,-37 100,-76 112,-127 89,-468 -289,-461 -115,2 -228,1 -342,1l3 792 189 -1 1 -222 150 -1 155 224 205 0c-35,-68 -166,-236 -172,-256z"/>
    <path class="fil0" d="M10665 14677c132,-27 241,72 259,185 22,142 -56,247 -168,275 -291,71 -395,-397 -91,-460zm439 318c86,-333 -298,-619 -634,-412 -79,49 -143,137 -165,232 -93,400 370,599 635,417 84,-57 130,-106 164,-237z"/>
    <path class="fil0" d="M12231 14676c149,-3 291,-23 290,125 -2,150 -165,126 -291,127l1 -252zm338 368c16,-26 62,-49 87,-81 84,-106 63,-278 -32,-358 -133,-111 -376,-77 -577,-77l1 759 182 -5c5,-59 -12,-159 7,-210l147 0c27,38 46,72 71,107 23,34 53,75 70,106l206 2 -82 -123c-29,-40 -54,-72 -80,-120z"/>
    <path class="fil0" d="M6980 15137c-11,-49 -10,-396 -5,-458 95,2 199,-7 276,34 138,76 151,298 -7,395 -66,40 -177,36 -264,29zm-183 148c149,3 399,21 523,-35 115,-52 225,-175 218,-344 -7,-173 -98,-285 -224,-338 -139,-58 -357,-29 -521,-35l4 752z"/>
    <path class="fil0" d="M13191 14676c136,-20 234,79 247,198 15,138 -66,250 -183,268 -294,44 -366,-421 -64,-466zm432 287c18,-183 -51,-317 -198,-397 -242,-131 -567,0 -613,280 -39,241 138,427 345,450 242,25 444,-121 466,-333z"/>
    <path class="fil0" d="M11427 14927c-4,-42 -1,-91 -1,-134 0,-103 -15,-109 16,-118 52,-14 201,1 237,33 58,50 54,147 -9,193 -49,34 -172,27 -243,26zm385 76c158,-119 135,-475 -242,-475 -107,0 -215,1 -326,0l3 758 179 -1 3 -213c210,1 123,-38 294,213l200 -1 -160 -240 49 -41z"/>
    <path class="fil0" d="M10465 13454c4,157 -15,435 15,574 32,146 175,235 353,234 457,-3 357,-458 359,-810l-189 4c-2,139 25,503 -36,580 -52,65 -299,167 -308,-175 -4,-134 -2,-273 -1,-409l-193 2z"/>
    <polygon class="fil0" points="9660,14975 9987,14981 9989,15285 10168,15284 10167,14533 9987,14533 9987,14823 9660,14822 9660,14533 9480,14534 9481,15284 9660,15286 "/>
    <path class="fil0" d="M8135 14677c85,-1 97,33 84,-139 -36,-10 -509,-9 -559,-1l-1 749 580 -1 -1 -142c-84,-8 -341,13 -398,-8l1 -162 339 2 -3 -141 -338 -5 0 -150 296 -2z"/>
    <path class="fil0" d="M8878 14986c8,-67 77,-182 97,-261 23,23 24,36 36,66 9,23 18,40 27,63 13,32 45,102 50,135l-210 -3zm-127 299c20,-50 37,-119 69,-155l44 -1c349,-7 269,-32 352,156l191 0c-3,-17 -323,-726 -337,-751l-177 -1c-32,74 -313,694 -325,752l183 0z"/>
    <path class="fil0" d="M8281 13610c19,-19 16,-10 26,-34 -26,-20 -64,-58 -95,-76 -36,-20 -72,-37 -115,-46 -587,-125 -745,618 -279,781 173,61 422,9 491,-123 -2,-2 -4,-3 -5,-4l-119 -107c-53,41 -129,137 -278,88 -210,-68 -226,-397 -15,-471 168,-58 254,52 292,74l97 -82z"/>
    <path class="fil0" d="M10233 13693c3,-2 113,-91 126,-119 -39,-21 -57,-51 -98,-73 -32,-18 -72,-35 -115,-46 -85,-22 -203,-18 -281,13 -166,66 -265,199 -267,385 -5,457 606,510 760,259l-117 -108c-48,25 -136,142 -290,82 -226,-87 -191,-411 -3,-469 113,-36 210,-1 285,76z"/>
    <polygon class="fil0" points="11355,14249 11939,14249 11939,14092 11548,14090 11548,13455 11356,13454 "/>
    <path class="fil2" d="M12376 13609c-322,52 -218,548 84,485 296,-61 230,-536 -84,-485z"/>
    <path class="fil2" d="M10665 14677c-304,63 -200,531 91,460 112,-28 190,-133 168,-275 -18,-113 -127,-212 -259,-185z"/>
    <path class="fil2" d="M13191 14676c-302,45 -230,510 64,466 117,-18 198,-130 183,-268 -13,-119 -111,-218 -247,-198z"/>
    <path class="fil2" d="M6980 15137c87,7 198,11 264,-29 158,-97 145,-319 7,-395 -77,-41 -181,-32 -276,-34 -5,62 -6,409 5,458z"/>
    <polygon class="fil0" points="8430,14248 8621,14248 8622,13454 8431,13452 "/>
    <path class="fil2" d="M8997 13612c1,54 -9,252 16,261 54,19 210,-5 247,-37 111,-97 7,-281 -263,-224z"/>
    <path class="fil2" d="M11427 14927c71,1 194,8 243,-26 63,-46 67,-143 9,-193 -36,-32 -185,-47 -237,-33 -31,9 -16,15 -16,118 0,43 -3,92 1,134z"/>
    <path class="fil2" d="M12230 14928c126,-1 289,23 291,-127 1,-148 -141,-128 -290,-125l-1 252z"/>
    <path class="fil0" d="M8434 13383c127,3 126,15 201,-51 31,-27 107,-84 126,-118 -118,4 -180,-19 -221,31 -29,34 -99,110 -106,138z"/>
    <path class="fil2" d="M8878 14986l210 3c-5,-33 -37,-103 -50,-135 -9,-23 -18,-40 -27,-63 -12,-30 -13,-43 -36,-66 -20,79 -89,194 -97,261z"/>
   </g>
  </g>
  <g id="_1726583409584">
   <path class="fil0" d="M5744 16030c7,-95 -30,-232 80,-241 114,-9 76,149 83,240l43 -2c3,-91 -28,-239 84,-240 107,-1 69,144 76,241l42 -1c5,-67 13,-199 -24,-244 -56,-69 -137,-32 -191,8 -42,-25 -90,-85 -187,-5 -20,-40 17,-37 -46,-36 -10,41 -10,235 -2,279l42 1z"/>
   <path class="fil0" d="M9141 15933c-45,121 -228,50 -177,-83 46,-119 226,-50 177,83zm3 -148c-90,-73 -230,-35 -234,100 -5,135 150,198 228,108 8,19 2,21 15,37l38 -3c6,-63 -1,-156 -1,-223 1,-170 12,-170 -43,-167l-3 148z"/>
   <path class="fil0" d="M8244 15792c127,-38 161,171 49,199 -129,32 -169,-164 -49,-199zm-68 202c86,73 238,33 234,-101 -1,-62 -33,-114 -80,-133 -59,-24 -122,-14 -148,30 -23,-30 3,-43 -56,-39l2 384 42 -2 6 -139z"/>
   <path class="fil0" d="M9681 15794c131,-47 179,153 75,191 -60,22 -113,-5 -130,-55 -15,-49 -10,-113 55,-136zm132 -9c-3,-1 -5,-3 -7,-4l-19 -12c-93,-57 -216,3 -217,125 -1,149 192,175 233,98 17,35 -5,41 52,35l-2 -390 -39 2 -1 146z"/>
   <path class="fil0" d="M10500 15804c126,-69 190,131 88,179 -69,32 -172,-25 -134,-134 13,-35 18,-30 46,-45zm-52 193c51,22 86,59 167,21 42,-20 70,-68 68,-133 -5,-145 -181,-176 -226,-96 -1,-2 -2,-5 -3,-6l-6 -12c-9,-15 5,-2 -10,-14 -12,-11 -8,-8 -36,-5l3 381 42 1 1 -137z"/>
   <path class="fil0" d="M12055 15793c142,-41 166,170 61,196 -137,34 -175,-163 -61,-196zm85 -29c-57,-35 -135,-17 -179,45 -18,26 -18,45 -19,79 -5,109 106,176 197,131l28 -21c18,19 -7,31 56,29l-2 -392 -43 3 1 153 -39 -27z"/>
   <path class="fil0" d="M8650 15902c6,53 -2,67 -36,84 -29,15 -69,17 -93,-4 -33,-29 -16,-62 15,-74 31,-12 79,-7 114,-6zm-177 -98c34,24 47,-21 112,-15 45,4 69,29 63,77 -86,0 -196,-12 -190,90 6,86 124,99 185,50l15 17c18,10 23,6 38,4 16,-132 25,-297 -142,-278 -80,9 -85,26 -81,55z"/>
   <path class="fil0" d="M9315 15976c-8,-45 -4,-63 35,-71 33,-7 75,-7 107,0 15,97 -79,105 -142,71zm-37 -176c28,25 14,15 56,-1 55,-22 132,-14 123,65 -44,3 -94,-5 -136,11 -140,54 7,230 123,131 41,20 -19,24 58,23 15,-73 16,-215 -29,-254 -40,-35 -193,-41 -195,25z"/>
   <path class="fil0" d="M10118 15901c6,45 -1,70 -36,87 -28,13 -70,13 -93,-8 -21,-21 -21,-57 13,-72 30,-12 84,-11 116,-7zm2 -37c-43,6 -96,-4 -135,11 -151,55 31,236 122,130 2,1 4,3 5,4 1,1 3,4 5,5 25,19 25,16 49,15 8,-69 12,-217 -29,-254 -47,-42 -160,-33 -203,11 7,10 10,13 21,27 16,-2 169,-74 165,51z"/>
   <path class="fil0" d="M6945 15909c11,107 -113,102 -137,69 -54,-74 84,-92 137,-69zm44 119c6,-39 5,-179 -4,-211 -18,-60 -71,-77 -140,-70 -78,9 -126,89 -23,51 61,-23 136,-7 118,68 -85,0 -193,-12 -188,91 5,91 120,92 181,49 21,18 10,22 56,22z"/>
   <path class="fil0" d="M6267 15869c7,-108 174,-112 181,0l-181 0zm227 31c-10,-285 -389,-118 -249,74 77,105 247,48 224,2 -14,-28 -61,31 -133,12 -41,-10 -66,-38 -71,-84l229 -4z"/>
   <path class="fil0" d="M7567 15868c15,-106 178,-108 182,1l-182 -1zm230 31c-9,-93 -69,-177 -178,-147 -101,29 -123,157 -70,222 89,111 239,41 221,4 -16,-32 -61,27 -131,12 -37,-8 -67,-45 -69,-86l227 -5z"/>
   <path class="fil0" d="M12405 15795c134,-48 174,161 66,192 -64,19 -117,-14 -128,-68 -14,-70 8,-105 62,-124zm171 130c22,-83 -34,-155 -99,-173 -82,-22 -165,28 -178,94 -41,216 231,251 277,79z"/>
   <path class="fil0" d="M10840 15794c135,-47 171,162 67,193 -66,19 -115,-15 -127,-67 -14,-59 4,-106 60,-126zm-112 123c4,36 38,71 56,86 79,67 250,26 225,-143 -26,-173 -301,-139 -281,57z"/>
   <path class="fil0" d="M11727 15792c135,-54 175,168 65,197 -135,35 -176,-153 -65,-197zm-110 117c7,74 76,131 161,123 76,-8 134,-76 122,-163 -25,-175 -301,-160 -283,40z"/>
   <path class="fil2" d="M11727 15792c-111,44 -70,232 65,197 110,-29 70,-251 -65,-197z"/>
   <path class="fil2" d="M9681 15794c-65,23 -70,87 -55,136 17,50 70,77 130,55 104,-38 56,-238 -75,-191z"/>
   <path class="fil0" d="M5210 15750c-11,67 -13,193 23,239 43,56 149,61 180,3 19,37 -13,36 48,37 5,-50 8,-236 -4,-279l-36 1c-20,95 36,262 -107,238 -56,-9 -61,-58 -61,-120 -1,-133 14,-121 -43,-119z"/>
   <path class="fil2" d="M12405 15795c-54,19 -76,54 -62,124 11,54 64,87 128,68 108,-31 68,-240 -66,-192z"/>
   <path class="fil2" d="M12055 15793c-114,33 -76,230 61,196 105,-26 81,-237 -61,-196z"/>
   <path class="fil2" d="M10840 15794c-56,20 -74,67 -60,126 12,52 61,86 127,67 104,-31 68,-240 -67,-193z"/>
   <path class="fil2" d="M9141 15933c49,-133 -131,-202 -177,-83 -51,133 132,204 177,83z"/>
   <path class="fil2" d="M8244 15792c-120,35 -80,231 49,199 112,-28 78,-237 -49,-199z"/>
   <path class="fil2" d="M10500 15804c-28,15 -33,10 -46,45 -38,109 65,166 134,134 102,-48 38,-248 -88,-179z"/>
   <path class="fil0" d="M7884 15828c15,-40 48,-46 92,-38 57,11 57,41 77,-22 -38,-8 -224,-60 -213,68 11,122 183,20 172,142 -85,29 -92,10 -162,-10l-21 30c50,49 211,52 230,-26 30,-124 -142,-71 -175,-144z"/>
   <path class="fil0" d="M12611 16001c51,19 116,52 183,18 57,-28 72,-102 3,-133 -41,-19 -170,-20 -124,-77 19,-23 58,-26 91,-19 70,15 32,31 65,-11 -22,-28 -73,-34 -118,-30 -105,11 -135,134 -13,154 45,8 110,7 95,64 -27,56 -152,1 -165,-2l-17 36z"/>
   <path class="fil0" d="M5169 15666c-32,-15 -264,-15 -294,0l0 36c181,-7 116,-30 124,327l45 -1c3,-72 -10,-273 5,-326 22,-1 40,0 62,0 5,0 28,0 32,-1 37,-6 12,2 27,-11l-1 -24z"/>
   <path class="fil0" d="M6636 15988c-26,-43 -22,-137 -15,-199l77 -2 -3 -35 -78 -4 -8 -60 -32 1c-1,2 -2,4 -2,6l-5 20c-1,9 0,25 0,34l-47 6c2,53 5,20 45,41 3,50 -8,163 11,200 12,24 33,34 71,36 78,3 64,-26 65,-36 -30,-15 -39,0 -79,-8z"/>
   <path class="fil0" d="M11498 15985c-15,-44 -14,-140 -8,-194 77,-6 77,13 80,-20 3,-38 -12,-20 -83,-24 -1,-35 13,-67 -24,-60 -34,6 -15,11 -22,55 -41,16 -35,-5 -43,29 26,27 23,9 43,25 1,82 -17,188 41,222 81,47 146,-32 75,-31 -31,1 -26,6 -59,-2z"/>
   <path class="fil0" d="M11129 16028c15,-112 -39,-227 103,-236l1 -43c-49,-3 -79,12 -98,46 -14,-50 21,-42 -38,-45 -22,18 -15,24 -14,61l2 217 44 0z"/>
   <polygon class="fil0" points="8791,16028 8837,16028 8835,15635 8790,15636 "/>
   <path class="fil0" d="M7387 16029c4,-54 -6,-128 8,-177 7,-24 20,-42 44,-53 55,-24 41,20 50,-44 -18,-9 -40,-9 -60,1 -20,10 -25,20 -33,33 -1,-2 -2,-5 -2,-6l-7 -18c-6,-14 -1,-7 -8,-16l-38 3 1 277 45 0z"/>
   <path class="fil2" d="M6945 15909c-53,-23 -191,-5 -137,69 24,33 148,38 137,-69z"/>
   <path class="fil2" d="M8650 15902c-35,-1 -83,-6 -114,6 -31,12 -48,45 -15,74 24,21 64,19 93,4 34,-17 42,-31 36,-84z"/>
   <path class="fil2" d="M6267 15869l181 0c-7,-112 -174,-108 -181,0z"/>
   <path class="fil2" d="M10118 15901c-32,-4 -86,-5 -116,7 -34,15 -34,51 -13,72 23,21 65,21 93,8 35,-17 42,-42 36,-87z"/>
   <path class="fil2" d="M9315 15976c63,34 157,26 142,-71 -32,-7 -74,-7 -107,0 -39,8 -43,26 -35,71z"/>
   <path class="fil2" d="M7567 15868l182 1c-4,-109 -167,-107 -182,-1z"/>
   <path class="fil0" d="M7127 15991c-8,-46 -75,-32 -62,12l20 28 -20 74c38,3 32,3 46,-43 5,-18 19,-54 16,-71z"/>
   <path class="fil0" d="M12940 16027c12,-51 -2,-76 -55,-53l3 51 52 2z"/>
  </g>
 </g>
</svg>
